{"title":"Black Lightning (2010) DVDrip Ex-nlsub NLUPPER","uid":5698708,"size":737869200,"categoryP":"video","categoryS":"movies","magnet":"?xt=urn:btih:aa72337e407a50511f2a1758002d0de8876e2be1&amp;dn=Black+Lightning+%282010%29+DVDrip+Ex-nlsub+NLUPPER&amp;tr=udp%3A%2F%2Ftracker.openbittorrent.com%3A80&amp;tr=udp%3A%2F%2Fopen.demonii.com%3A1337&amp;tr=udp%3A%2F%2Ftracker.coppersurfer.tk%3A6969&amp;tr=udp%3A%2F%2Fexodus.desync.com%3A6969","seeders":0,"leechers":1,"uploader":null,"files":7,"time":1279409527,"description":"Black Lightning (2010) DVDrip Ex-nlsub NLUPPER\n &lt;a href=&quot;\nhttp://bayimg.com/janIJaaCL&quot; rel=&quot;nofollow&quot; target=&quot;_NEW&quot;&gt;\nhttp://bayimg.com/janIJaaCL&lt;/a&gt;\n\nMM:   &lt;a href=&quot; http://www.moviemeter.nl/film/65134&quot; rel=&quot;nofollow&quot; target=&quot;_NEW&quot;&gt; http://www.moviemeter.nl/film/65134&lt;/a&gt;\n\nIMDB:   &lt;a href=&quot; http://www.imdb.com/title/tt1569364/&quot; rel=&quot;nofollow&quot; target=&quot;_NEW&quot;&gt; http://www.imdb.com/title/tt1569364/&lt;/a&gt;\n\nSub: NL extern\n\nRelease Name: Black Lightning (Release-2010) DVDrip Ex-nlsub.By.NLU\n\nComplete name                    : Black lightning DVDRIP\\black l.avi\nFormat                           : DivX\nFormat/Info                      : Hack of AVI\nFile size                        : 699 MiB\nDuration                         : 1h 41mn\nOverall bit rate                 : 961 Kbps\n\nVideo\nID                               : 0\nFormat                           : MPEG-4 Visual\nFormat profile                   : AdvancedSimple@L5\nFormat settings, BVOP            : Yes\nFormat settings, QPel            : No\nFormat settings, GMC             : No warppoints\nFormat settings, Matrix          : Custom\nMuxing mode                      : Packed bitstream\nCodec ID                         : DX50\nCodec ID/Hint                    : DivX 5\nDuration                         : 1h 41mn\nBit rate                         : 823 Kbps\nWidth                            : 640 pixels\nHeight                           : 272 pixels\nDisplay aspect ratio             : 2.35:1\nFrame rate                       : 25.000 fps\nResolution                       : 24 bits\nColorimetry                      : 4:2:0\nScan type                        : Progressive\nBits/(Pixel*Frame)               : 0.189\nStream size                      : 599 MiB (86%)\nTitle                            : Video \nWriting library                  : XviD 1.2.1 (UTC 2008-12-04)\n\nAudio\nID                               : 1\nFormat                           : MPEG Audio\nFormat version                   : Version 1\nFormat profile                   : Layer 3\nFormat_Settings_Mode             : Joint stereo / MS Stereo\nCodec ID                         : 55\nCodec ID/Hint                    : MP3\nDuration                         : 1h 41mn\nBit rate mode                    : Constant\nBit rate                         : 128 Kbps\nChannel(s)                       : 2 channels\nSampling rate                    : 48.0 KHz\nResolution                       : 16 bits\nStream size                      : 93.2 MiB (13%)\nAlignment                        : Split accross interleaves\nInterleave, duration             : 40 ms (1.00 video frame)\nInterleave, preload duration     : 500 ms\nTitle                            : Audio \nWriting library                  : LAME3.98r\nEncoding settings                : -m j -V 4 -q 7 -lowpass 17 -b 128\n\n","torrent":{"xt":"urn:btih:aa72337e407a50511f2a1758002d0de8876e2be1","amp;dn":"Black+Lightning+%282010%29+DVDrip+Ex-nlsub+NLUPPER","amp;tr":["udp%3A%2F%2Ftracker.openbittorrent.com%3A80","udp%3A%2F%2Fopen.demonii.com%3A1337","udp%3A%2F%2Ftracker.coppersurfer.tk%3A6969","udp%3A%2F%2Fexodus.desync.com%3A6969"],"infoHash":"aa72337e407a50511f2a1758002d0de8876e2be1","infoHashBuffer":{"type":"Buffer","data":[170,114,51,126,64,122,80,81,31,42,23,88,0,45,13,232,135,110,43,225]},"announce":[],"urlList":[]}}